<svg width="24" height="24" viewBox="0 0 24 24" fill="none" xmlns="http://www.w3.org/2000/svg">
  <path fill-rule="evenodd" clip-rule="evenodd" d="M12 0C5.37 0 0 5.37 0 12c0 5.31 3.435 9.795 8.205 11.385.6.11.795-.255.795-.57 0-.285-.01-1.23-.015-2.23-3.338.72-4.042-1.43-4.042-1.43-.546-1.385-1.335-1.755-1.335-1.755-1.085-.74.084-.725.084-.725 1.2.085 1.83 1.23 1.83 1.23 1.07 1.815 2.805 1.29 3.495.99.105-.765.42-1.29.765-1.59-2.67-.3-5.46-1.335-5.46-5.94 0-1.315.465-2.385 1.23-3.225-.12-.3-.54-1.53.12-3.18 0 0 1.005-.315 3.3 1.23.96-.27 1.98-.405 3-.405s2.04.135 3 .405c2.295-1.545 3.3-1.23 3.3-1.23.66 1.65.24 2.88.12 3.18.765.84 1.23 1.905 1.23 3.225 0 4.62-2.805 5.625-5.475 5.925.435.375.81 1.095.81 2.22 0 1.605-.015 2.895-.015 3.3 0 .315.195.69.795.57C20.565 21.795 24 17.31 24 12c0-6.63-5.37-12-12-12z" fill="currentColor"/>
</svg>